# xmcd
#
# Track frame offsets: 
#        150
#        28687
#        63783
#        90192
#        112912
#        133858
#        172008
#        219369
#
# Disc length: 3351 seconds
#
# Revision: 0
# Processed by: cddbd v1.5.1PL2 Copyright (c) Steve Scherf et al.
# Submitted via: ExactAudioCopy v0.95a5
#
DISCID=610d1508
DTITLE=John Lee Hooker - Too Many Pretty Women
DYEAR=2003
DGENRE=Blues
TTITLE0=Too Many Pretty Women
TTITLE1=Serves You Right to Suffer
TTITLE2=Boom Boom
TTITLE3=Everything Gonna Be Alright
TTITLE4=One Borbon, On Scotch, One Beer
TTITLE5=Outta My Mind
TTITLE6=Marching Home Boogie
TTITLE7=Baby Please Don't Go
EXTD=
EXTT0=
EXTT1=
EXTT2=
EXTT3=
EXTT4=
EXTT5=
EXTT6=
EXTT7=
PLAYORDER=
